<svg width="187" height="93" viewBox="0 0 187 93" fill="none" xmlns="http://www.w3.org/2000/svg">
<path d="M2.06504 38C1.52104 38 1.07304 37.824 0.721044 37.472C0.369044 37.12 0.193044 36.672 0.193044 36.128V2.384C0.193044 1.84 0.369044 1.392 0.721044 1.04C1.07304 0.687999 1.52104 0.511999 2.06504 0.511999H11.041C13.377 0.511999 15.457 1.008 17.281 2C19.105 2.96 20.529 4.32 21.553 6.08C22.609 7.808 23.137 9.808 23.137 12.08C23.137 14.256 22.609 16.192 21.553 17.888C20.529 19.584 19.105 20.912 17.281 21.872C15.457 22.832 13.377 23.312 11.041 23.312H3.93704V36.128C3.93704 36.672 3.76104 37.12 3.40904 37.472C3.05704 37.824 2.60904 38 2.06504 38ZM22.129 38C21.713 38 21.377 37.92 21.121 37.76C20.897 37.6 20.689 37.36 20.497 37.04L11.281 22.352L15.025 21.392L23.617 35.12C24.097 35.888 24.177 36.56 23.857 37.136C23.569 37.712 22.993 38 22.129 38ZM3.93704 19.712H11.041C12.673 19.712 14.113 19.392 15.361 18.752C16.641 18.08 17.649 17.168 18.385 16.016C19.121 14.864 19.489 13.552 19.489 12.08C19.489 10.512 19.121 9.136 18.385 7.952C17.649 6.736 16.641 5.792 15.361 5.12C14.113 4.448 12.673 4.112 11.041 4.112H3.93704V19.712ZM40.5689 38.24C37.9769 38.24 35.6729 37.68 33.6569 36.56C31.6729 35.408 30.1049 33.824 28.9529 31.808C27.8329 29.792 27.2729 27.488 27.2729 24.896C27.2729 22.272 27.8009 19.968 28.8569 17.984C29.9449 15.968 31.4329 14.384 33.3209 13.232C35.2089 12.08 37.3849 11.504 39.8489 11.504C42.2809 11.504 44.3929 12.064 46.1849 13.184C48.0089 14.272 49.4169 15.792 50.4089 17.744C51.4009 19.696 51.8969 21.92 51.8969 24.416C51.8969 24.928 51.7369 25.344 51.4169 25.664C51.0969 25.952 50.6809 26.096 50.1689 26.096H29.7689V23.024H50.5529L48.4889 24.512C48.5209 22.656 48.1849 20.992 47.4809 19.52C46.7769 18.048 45.7689 16.896 44.4569 16.064C43.1769 15.232 41.6409 14.816 39.8489 14.816C38.0249 14.816 36.4249 15.248 35.0489 16.112C33.6729 16.976 32.6009 18.176 31.8329 19.712C31.0969 21.216 30.7289 22.944 30.7289 24.896C30.7289 26.848 31.1449 28.576 31.9769 30.08C32.8409 31.584 34.0089 32.768 35.4809 33.632C36.9529 34.496 38.6489 34.928 40.5689 34.928C41.7209 34.928 42.8729 34.736 44.0249 34.352C45.2089 33.936 46.1529 33.424 46.8569 32.816C47.2089 32.528 47.6089 32.384 48.0569 32.384C48.5049 32.352 48.8889 32.464 49.2089 32.72C49.6249 33.104 49.8329 33.52 49.8329 33.968C49.8649 34.416 49.6889 34.8 49.3049 35.12C48.2489 36.016 46.9049 36.768 45.2729 37.376C43.6409 37.952 42.0729 38.24 40.5689 38.24ZM79.9413 38C79.3973 38 78.9493 37.824 78.5973 37.472C78.2453 37.12 78.0693 36.688 78.0693 36.176V23.696C78.0693 21.712 77.6853 20.08 76.9173 18.8C76.1813 17.52 75.1573 16.56 73.8453 15.92C72.5653 15.28 71.1093 14.96 69.4773 14.96C67.9093 14.96 66.4853 15.264 65.2053 15.872C63.9573 16.48 62.9653 17.312 62.2293 18.368C61.4933 19.424 61.1253 20.624 61.1253 21.968H58.4853C58.5493 19.952 59.0933 18.16 60.1173 16.592C61.1413 14.992 62.5013 13.744 64.1973 12.848C65.8933 11.92 67.7813 11.456 69.8613 11.456C72.1333 11.456 74.1653 11.936 75.9573 12.896C77.7493 13.824 79.1573 15.2 80.1813 17.024C81.2373 18.848 81.7653 21.072 81.7653 23.696V36.176C81.7653 36.688 81.5893 37.12 81.2373 37.472C80.8853 37.824 80.4533 38 79.9413 38ZM59.3013 38C58.7253 38 58.2613 37.84 57.9093 37.52C57.5893 37.168 57.4293 36.72 57.4293 36.176V13.616C57.4293 13.04 57.5893 12.592 57.9093 12.272C58.2613 11.92 58.7253 11.744 59.3013 11.744C59.8453 11.744 60.2773 11.92 60.5973 12.272C60.9493 12.592 61.1253 13.04 61.1253 13.616V36.176C61.1253 36.72 60.9493 37.168 60.5973 37.52C60.2773 37.84 59.8453 38 59.3013 38ZM99.4657 38C97.7697 38 96.2497 37.6 94.9057 36.8C93.5937 36 92.5537 34.912 91.7857 33.536C91.0177 32.128 90.6337 30.528 90.6337 28.736V5.264C90.6337 4.72 90.7937 4.272 91.1137 3.92C91.4657 3.568 91.9137 3.392 92.4577 3.392C93.0017 3.392 93.4497 3.568 93.8017 3.92C94.1537 4.272 94.3297 4.72 94.3297 5.264V28.736C94.3297 30.368 94.8097 31.712 95.7697 32.768C96.7297 33.792 97.9617 34.304 99.4657 34.304H100.762C101.274 34.304 101.69 34.48 102.01 34.832C102.33 35.184 102.49 35.632 102.49 36.176C102.49 36.72 102.298 37.168 101.914 37.52C101.53 37.84 101.05 38 100.474 38H99.4657ZM87.5137 15.92C87.0337 15.92 86.6337 15.776 86.3137 15.488C85.9937 15.168 85.8337 14.784 85.8337 14.336C85.8337 13.856 85.9937 13.472 86.3137 13.184C86.6337 12.864 87.0337 12.704 87.5137 12.704H99.7537C100.234 12.704 100.634 12.864 100.954 13.184C101.274 13.472 101.434 13.856 101.434 14.336C101.434 14.784 101.274 15.168 100.954 15.488C100.634 15.776 100.234 15.92 99.7537 15.92H87.5137ZM119.354 38.24C116.89 38.24 114.682 37.664 112.73 36.512C110.778 35.328 109.226 33.728 108.074 31.712C106.954 29.696 106.394 27.424 106.394 24.896C106.394 22.336 106.97 20.048 108.122 18.032C109.306 16.016 110.906 14.432 112.922 13.28C114.938 12.096 117.21 11.504 119.738 11.504C122.266 11.504 124.522 12.096 126.506 13.28C128.522 14.432 130.106 16.016 131.258 18.032C132.442 20.048 133.05 22.336 133.082 24.896L131.594 26.048C131.594 28.352 131.05 30.432 129.962 32.288C128.906 34.112 127.45 35.568 125.594 36.656C123.77 37.712 121.69 38.24 119.354 38.24ZM119.738 34.88C121.594 34.88 123.242 34.448 124.682 33.584C126.154 32.72 127.306 31.536 128.138 30.032C129.002 28.496 129.434 26.784 129.434 24.896C129.434 22.976 129.002 21.264 128.138 19.76C127.306 18.256 126.154 17.072 124.682 16.208C123.242 15.312 121.594 14.864 119.738 14.864C117.914 14.864 116.266 15.312 114.794 16.208C113.322 17.072 112.154 18.256 111.29 19.76C110.426 21.264 109.994 22.976 109.994 24.896C109.994 26.784 110.426 28.496 111.29 30.032C112.154 31.536 113.322 32.72 114.794 33.584C116.266 34.448 117.914 34.88 119.738 34.88ZM131.21 38C130.666 38 130.218 37.84 129.866 37.52C129.514 37.168 129.338 36.72 129.338 36.176V27.968L130.25 24.176L133.082 24.896V36.176C133.082 36.72 132.906 37.168 132.554 37.52C132.202 37.84 131.754 38 131.21 38ZM145.215 38C143.935 38 142.783 37.648 141.759 36.944C140.767 36.24 139.983 35.264 139.407 34.016C138.863 32.768 138.591 31.328 138.591 29.696V2.336C138.591 1.792 138.751 1.36 139.071 1.04C139.423 0.687999 139.871 0.511999 140.415 0.511999C140.959 0.511999 141.391 0.687999 141.711 1.04C142.063 1.36 142.239 1.792 142.239 2.336V29.696C142.239 31.072 142.511 32.192 143.055 33.056C143.631 33.92 144.351 34.352 145.215 34.352H146.415C146.895 34.352 147.279 34.528 147.567 34.88C147.855 35.2 147.999 35.632 147.999 36.176C147.999 36.72 147.791 37.168 147.375 37.52C146.991 37.84 146.479 38 145.839 38H145.215ZM161.545 38.24C159.657 38.24 157.785 37.92 155.929 37.28C154.073 36.64 152.569 35.68 151.417 34.4C151.065 34.016 150.921 33.584 150.985 33.104C151.049 32.624 151.289 32.208 151.705 31.856C152.153 31.536 152.617 31.408 153.097 31.472C153.577 31.536 153.977 31.744 154.297 32.096C155.065 32.992 156.073 33.68 157.321 34.16C158.601 34.64 160.009 34.88 161.545 34.88C163.913 34.88 165.625 34.48 166.681 33.68C167.737 32.848 168.281 31.856 168.313 30.704C168.313 29.552 167.769 28.608 166.681 27.872C165.593 27.104 163.801 26.512 161.305 26.096C158.073 25.584 155.705 24.688 154.201 23.408C152.697 22.128 151.945 20.608 151.945 18.848C151.945 17.216 152.377 15.856 153.241 14.768C154.105 13.68 155.257 12.864 156.697 12.32C158.137 11.776 159.721 11.504 161.449 11.504C163.593 11.504 165.433 11.872 166.969 12.608C168.537 13.344 169.801 14.336 170.761 15.584C171.081 16 171.209 16.432 171.145 16.88C171.081 17.328 170.825 17.696 170.377 17.984C169.993 18.208 169.545 18.288 169.033 18.224C168.553 18.128 168.137 17.888 167.785 17.504C166.985 16.576 166.057 15.904 165.001 15.488C163.945 15.04 162.729 14.816 161.353 14.816C159.593 14.816 158.185 15.184 157.129 15.92C156.073 16.624 155.545 17.52 155.545 18.608C155.545 19.344 155.737 19.984 156.121 20.528C156.537 21.072 157.225 21.552 158.185 21.968C159.177 22.384 160.553 22.736 162.313 23.024C164.713 23.408 166.601 23.984 167.977 24.752C169.385 25.488 170.377 26.368 170.953 27.392C171.561 28.384 171.865 29.472 171.865 30.656C171.865 32.16 171.417 33.488 170.521 34.64C169.657 35.76 168.441 36.64 166.873 37.28C165.337 37.92 163.561 38.24 161.545 38.24ZM178.332 38.14C177.466 38.14 176.719 37.9867 176.092 37.68C175.466 37.36 174.979 36.92 174.632 36.36C174.286 35.8 174.112 35.1533 174.112 34.42C174.112 33.5667 174.379 32.78 174.912 32.06C175.446 31.3267 176.252 30.54 177.332 29.7L179.012 28.38C179.586 27.9267 180.012 27.4667 180.292 27C180.586 26.52 180.732 26.0267 180.732 25.52C180.732 24.9733 180.546 24.5 180.172 24.1C179.799 23.6867 179.272 23.48 178.592 23.48C177.992 23.48 177.492 23.6733 177.092 24.06C176.706 24.4333 176.512 24.8733 176.512 25.38C176.512 25.7933 176.592 26.18 176.752 26.54C176.926 26.8867 177.186 27.2333 177.532 27.58L186.512 36.54C186.672 36.7133 186.766 36.8733 186.792 37.02C186.819 37.1667 186.752 37.3267 186.592 37.5C186.246 37.8467 185.906 37.8467 185.572 37.5L176.492 28.42C176.066 27.9933 175.726 27.5267 175.472 27.02C175.232 26.5 175.112 25.96 175.112 25.4C175.112 24.7867 175.266 24.24 175.572 23.76C175.879 23.28 176.292 22.9 176.812 22.62C177.332 22.34 177.926 22.2 178.592 22.2C179.272 22.2 179.879 22.3467 180.412 22.64C180.946 22.9333 181.366 23.3333 181.672 23.84C181.979 24.3333 182.132 24.9 182.132 25.54C182.119 26.0467 182.012 26.52 181.812 26.96C181.626 27.3867 181.352 27.8 180.992 28.2C180.632 28.5867 180.199 28.98 179.692 29.38L178.032 30.66C177.459 31.1133 176.992 31.5533 176.632 31.98C176.272 32.3933 176.006 32.8 175.832 33.2C175.672 33.6 175.592 34.0067 175.592 34.42C175.592 35.14 175.832 35.72 176.312 36.16C176.792 36.5867 177.479 36.8 178.372 36.8C179.052 36.8 179.672 36.6267 180.232 36.28C180.806 35.9333 181.392 35.44 181.992 34.8L185.032 31.58C185.192 31.42 185.346 31.3267 185.492 31.3C185.639 31.26 185.799 31.32 185.972 31.48C186.132 31.6267 186.219 31.7867 186.232 31.96C186.246 32.1333 186.166 32.3067 185.992 32.48L182.952 35.7C182.259 36.46 181.539 37.06 180.792 37.5C180.059 37.9267 179.239 38.14 178.332 38.14ZM3.53569 92C3.02369 92 2.57569 91.824 2.19169 91.472C1.83969 91.088 1.66369 90.64 1.66369 90.128V56.384C1.66369 55.84 1.83969 55.392 2.19169 55.04C2.54369 54.688 2.99169 54.512 3.53569 54.512H26.0477C26.5917 54.512 27.0397 54.688 27.3917 55.04C27.7437 55.36 27.9197 55.792 27.9197 56.336C27.9197 56.816 27.7437 57.232 27.3917 57.584C27.0397 57.936 26.5917 58.112 26.0477 58.112H5.40769V71.36H20.4317C20.9757 71.36 21.4237 71.536 21.7757 71.888C22.1277 72.24 22.3037 72.672 22.3037 73.184C22.3037 73.696 22.1277 74.128 21.7757 74.48C21.4237 74.832 20.9757 75.008 20.4317 75.008H5.40769V90.128C5.40769 90.64 5.23169 91.088 4.87969 91.472C4.52769 91.824 4.07969 92 3.53569 92ZM34.9757 75.824C35.0717 73.84 35.5837 72.064 36.5117 70.496C37.4717 68.928 38.7037 67.696 40.2077 66.8C41.7437 65.904 43.4397 65.456 45.2957 65.456C46.7677 65.456 47.9037 65.664 48.7037 66.08C49.5037 66.496 49.8077 67.104 49.6157 67.904C49.4877 68.384 49.2637 68.704 48.9437 68.864C48.6557 69.024 48.2877 69.088 47.8397 69.056C47.4237 69.024 46.9437 68.992 46.3997 68.96C44.6077 68.8 43.0077 68.992 41.5997 69.536C40.2237 70.048 39.1197 70.848 38.2877 71.936C37.4877 73.024 37.0877 74.32 37.0877 75.824H34.9757ZM35.2637 92C34.6877 92 34.2397 91.84 33.9197 91.52C33.5997 91.2 33.4397 90.752 33.4397 90.176V67.568C33.4397 66.992 33.5997 66.544 33.9197 66.224C34.2397 65.904 34.6877 65.744 35.2637 65.744C35.8397 65.744 36.2877 65.904 36.6077 66.224C36.9277 66.544 37.0877 66.992 37.0877 67.568V90.176C37.0877 90.752 36.9277 91.2 36.6077 91.52C36.2877 91.84 35.8397 92 35.2637 92ZM57.3441 92C56.7681 92 56.3041 91.84 55.9521 91.52C55.6321 91.168 55.4721 90.704 55.4721 90.128V67.616C55.4721 67.04 55.6321 66.592 55.9521 66.272C56.3041 65.92 56.7681 65.744 57.3441 65.744C57.8881 65.744 58.3201 65.92 58.6401 66.272C58.9921 66.592 59.1681 67.04 59.1681 67.616V90.128C59.1681 90.704 58.9921 91.168 58.6401 91.52C58.3201 91.84 57.8881 92 57.3441 92ZM57.2961 60.752C56.5921 60.752 55.9841 60.496 55.4721 59.984C54.9601 59.472 54.7041 58.848 54.7041 58.112C54.7041 57.312 54.9601 56.688 55.4721 56.24C56.0161 55.76 56.6401 55.52 57.3441 55.52C58.0161 55.52 58.6081 55.76 59.1201 56.24C59.6641 56.688 59.9361 57.312 59.9361 58.112C59.9361 58.848 59.6801 59.472 59.1681 59.984C58.6561 60.496 58.0321 60.752 57.2961 60.752ZM79.7631 92.24C77.1711 92.24 74.8671 91.68 72.8511 90.56C70.8671 89.408 69.2991 87.824 68.1471 85.808C67.0271 83.792 66.4671 81.488 66.4671 78.896C66.4671 76.272 66.9951 73.968 68.0511 71.984C69.1391 69.968 70.6271 68.384 72.5151 67.232C74.4031 66.08 76.5791 65.504 79.0431 65.504C81.4751 65.504 83.5871 66.064 85.3791 67.184C87.2031 68.272 88.6111 69.792 89.6031 71.744C90.5951 73.696 91.0911 75.92 91.0911 78.416C91.0911 78.928 90.9311 79.344 90.6111 79.664C90.2911 79.952 89.8751 80.096 89.3631 80.096H68.9631V77.024H89.7471L87.6831 78.512C87.7151 76.656 87.3791 74.992 86.6751 73.52C85.9711 72.048 84.9631 70.896 83.6511 70.064C82.3711 69.232 80.8351 68.816 79.0431 68.816C77.2191 68.816 75.6191 69.248 74.2431 70.112C72.8671 70.976 71.7951 72.176 71.0271 73.712C70.2911 75.216 69.9231 76.944 69.9231 78.896C69.9231 80.848 70.3391 82.576 71.1711 84.08C72.0351 85.584 73.2031 86.768 74.6751 87.632C76.1471 88.496 77.8431 88.928 79.7631 88.928C80.9151 88.928 82.0671 88.736 83.2191 88.352C84.4031 87.936 85.3471 87.424 86.0511 86.816C86.4031 86.528 86.8031 86.384 87.2511 86.384C87.6991 86.352 88.0831 86.464 88.4031 86.72C88.8191 87.104 89.0271 87.52 89.0271 87.968C89.0591 88.416 88.8831 88.8 88.4991 89.12C87.4431 90.016 86.0991 90.768 84.4671 91.376C82.8351 91.952 81.2671 92.24 79.7631 92.24ZM119.135 92C118.591 92 118.143 91.824 117.791 91.472C117.439 91.12 117.263 90.688 117.263 90.176V77.696C117.263 75.712 116.879 74.08 116.111 72.8C115.375 71.52 114.351 70.56 113.039 69.92C111.759 69.28 110.303 68.96 108.671 68.96C107.103 68.96 105.679 69.264 104.399 69.872C103.151 70.48 102.159 71.312 101.423 72.368C100.687 73.424 100.319 74.624 100.319 75.968H97.6794C97.7434 73.952 98.2874 72.16 99.3114 70.592C100.335 68.992 101.695 67.744 103.391 66.848C105.087 65.92 106.975 65.456 109.055 65.456C111.327 65.456 113.359 65.936 115.151 66.896C116.943 67.824 118.351 69.2 119.375 71.024C120.431 72.848 120.959 75.072 120.959 77.696V90.176C120.959 90.688 120.783 91.12 120.431 91.472C120.079 91.824 119.647 92 119.135 92ZM98.4954 92C97.9194 92 97.4554 91.84 97.1034 91.52C96.7834 91.168 96.6234 90.72 96.6234 90.176V67.616C96.6234 67.04 96.7834 66.592 97.1034 66.272C97.4554 65.92 97.9194 65.744 98.4954 65.744C99.0394 65.744 99.4714 65.92 99.7914 66.272C100.143 66.592 100.319 67.04 100.319 67.616V90.176C100.319 90.72 100.143 91.168 99.7914 91.52C99.4714 91.84 99.0394 92 98.4954 92ZM140.34 92.24C137.812 92.24 135.54 91.664 133.524 90.512C131.508 89.328 129.908 87.728 128.724 85.712C127.572 83.696 126.996 81.408 126.996 78.848C126.996 76.32 127.556 74.048 128.676 72.032C129.828 70.016 131.38 68.432 133.332 67.28C135.284 66.096 137.492 65.504 139.956 65.504C142.1 65.504 144.036 65.968 145.764 66.896C147.492 67.792 148.884 68.992 149.94 70.496V56.384C149.94 55.808 150.116 55.36 150.468 55.04C150.82 54.688 151.268 54.512 151.812 54.512C152.356 54.512 152.804 54.688 153.156 55.04C153.508 55.36 153.684 55.808 153.684 56.384V79.04C153.62 81.536 152.996 83.792 151.812 85.808C150.66 87.792 149.076 89.36 147.06 90.512C145.076 91.664 142.836 92.24 140.34 92.24ZM140.34 88.88C142.196 88.88 143.844 88.448 145.284 87.584C146.756 86.688 147.908 85.488 148.74 83.984C149.604 82.48 150.036 80.768 150.036 78.848C150.036 76.96 149.604 75.264 148.74 73.76C147.908 72.224 146.756 71.024 145.284 70.16C143.844 69.296 142.196 68.864 140.34 68.864C138.516 68.864 136.868 69.296 135.396 70.16C133.924 71.024 132.756 72.224 131.892 73.76C131.028 75.264 130.596 76.96 130.596 78.848C130.596 80.768 131.028 82.48 131.892 83.984C132.756 85.488 133.924 86.688 135.396 87.584C136.868 88.448 138.516 88.88 140.34 88.88ZM170.773 92.24C168.885 92.24 167.013 91.92 165.157 91.28C163.301 90.64 161.797 89.68 160.645 88.4C160.293 88.016 160.149 87.584 160.213 87.104C160.277 86.624 160.517 86.208 160.933 85.856C161.381 85.536 161.845 85.408 162.325 85.472C162.805 85.536 163.205 85.744 163.525 86.096C164.293 86.992 165.301 87.68 166.549 88.16C167.829 88.64 169.237 88.88 170.773 88.88C173.141 88.88 174.853 88.48 175.909 87.68C176.965 86.848 177.509 85.856 177.541 84.704C177.541 83.552 176.997 82.608 175.909 81.872C174.821 81.104 173.029 80.512 170.533 80.096C167.301 79.584 164.933 78.688 163.429 77.408C161.925 76.128 161.173 74.608 161.173 72.848C161.173 71.216 161.605 69.856 162.469 68.768C163.333 67.68 164.485 66.864 165.925 66.32C167.365 65.776 168.949 65.504 170.677 65.504C172.821 65.504 174.661 65.872 176.197 66.608C177.765 67.344 179.029 68.336 179.989 69.584C180.309 70 180.437 70.432 180.373 70.88C180.309 71.328 180.053 71.696 179.605 71.984C179.221 72.208 178.773 72.288 178.261 72.224C177.781 72.128 177.365 71.888 177.013 71.504C176.213 70.576 175.285 69.904 174.229 69.488C173.173 69.04 171.957 68.816 170.581 68.816C168.821 68.816 167.413 69.184 166.357 69.92C165.301 70.624 164.773 71.52 164.773 72.608C164.773 73.344 164.965 73.984 165.349 74.528C165.765 75.072 166.453 75.552 167.413 75.968C168.405 76.384 169.781 76.736 171.541 77.024C173.941 77.408 175.829 77.984 177.205 78.752C178.613 79.488 179.605 80.368 180.181 81.392C180.789 82.384 181.093 83.472 181.093 84.656C181.093 86.16 180.645 87.488 179.749 88.64C178.885 89.76 177.669 90.64 176.101 91.28C174.565 91.92 172.789 92.24 170.773 92.24Z" fill="#BB7E7E"/>
</svg>
